<?xml version="1.0" standalone="no"?><!DOCTYPE svg PUBLIC "-//W3C//DTD SVG 1.1//EN" "http://www.w3.org/Graphics/SVG/1.1/DTD/svg11.dtd"><svg t="1705994634792" class="icon" viewBox="0 0 1024 1024" version="1.1" xmlns="http://www.w3.org/2000/svg" p-id="21474" xmlns:xlink="http://www.w3.org/1999/xlink" width="200" height="200"><path d="M196.096 32h631.808c57.088 0 77.76 5.952 98.56 17.088 20.928 11.136 37.312 27.52 48.448 48.384 11.136 20.864 17.088 41.6 17.088 98.56v631.872c0 57.088-5.952 77.76-17.088 98.56-11.136 20.928-27.52 37.312-48.384 48.448-20.864 11.136-41.6 17.088-98.56 17.088H196.032c-57.088 0-77.76-5.952-98.56-17.088a116.288 116.288 0 0 1-48.448-48.384C37.952 905.6 32 884.928 32 827.968V196.032c0-57.088 5.952-77.76 17.088-98.56 11.136-20.928 27.52-37.312 48.384-48.448C118.4 37.952 139.072 32 196.032 32z" fill="#5F29CC" p-id="21475"></path><path d="M441.792 637.632l71.68-267.52a41.728 41.728 0 1 1 80.64 21.568L522.304 659.2a41.728 41.728 0 0 1-80.576-21.568zM311.168 386.944a41.344 41.344 0 1 1 58.496 58.496l-71.04 71.04 71.04 71.04a41.344 41.344 0 0 1-58.496 58.432L210.88 545.664a41.344 41.344 0 0 1 0-58.432l100.288-100.288z" fill="#FFFFFF" p-id="21476"></path><path d="M724.096 386.944A41.344 41.344 0 1 0 665.6 445.44l71.04 71.04-71.04 71.04a41.344 41.344 0 1 0 58.496 58.432l100.288-100.288a41.344 41.344 0 0 0 0-58.432L724.096 386.944z" fill="#FFFFFF" opacity=".4" p-id="21477"></path></svg>